<svg xmlns="http://www.w3.org/2000/svg" width="33.558" height="37.573" viewBox="0 0 33.558 37.573">
    <g data-name="Group 17416">
        <g data-name="Group 17408">
            <path data-name="Path 40447" d="M370.389 88.441a.734.734 0 0 1-.734-.734V82.69a.734.734 0 1 1 1.467 0v5.017a.734.734 0 0 1-.733.734z" transform="translate(-344.535 -75.94)" style="fill:#58595b"/>
        </g>
        <g data-name="Group 17409" transform="translate(25.117 3.655)">
            <circle data-name="Ellipse 2314" cx=".734" cy=".734" r=".734" style="fill:#58595b"/>
        </g>
        <g data-name="Group 17411">
            <path data-name="Path 40448" d="M60.906 7.709a7.7 7.7 0 0 0-12.388-6.12h-18.5a2.673 2.673 0 0 0-2.67 2.67V30.95a2.673 2.673 0 0 0 2.67 2.67h2.328v1.28a2.673 2.673 0 0 0 2.67 2.67h19.189a2.673 2.673 0 0 0 2.67-2.67V24.72a.734.734 0 1 0-1.467 0V34.9a1.2 1.2 0 0 1-1.2 1.2H35.021a1.2 1.2 0 0 1-1.2-1.2v-1.279h15.386a2.673 2.673 0 0 0 2.67-2.67V15.3a7.735 7.735 0 0 0 3.531-.209v2.992a.734.734 0 0 0 1.467 0v-3.6A7.715 7.715 0 0 0 60.9 7.71zM50.41 30.95a1.2 1.2 0 0 1-1.2 1.2H30.022a1.2 1.2 0 0 1-1.2-1.2V4.259a1.2 1.2 0 0 1 1.2-1.2h17.036A7.668 7.668 0 0 0 45.5 7.383H33a.734.734 0 0 0-.734.734v3.1a.734.734 0 0 0 .734.734h13.226a.731.731 0 0 0 .444-.149 7.752 7.752 0 0 0 3.74 3.098zm-4.918-22.1v1.631H33.737V8.85zm7.707 5.1a6.241 6.241 0 1 1 6.24-6.241A6.241 6.241 0 0 1 53.2 13.95z" transform="translate(-27.348 .003)" style="fill:#58595b"/>
            <g data-name="Group 17410">
                <path data-name="Path 40449" d="M410.474 283.007a.734.734 0 1 1 .715-.567.734.734 0 0 1-.715.567z" transform="translate(-381.68 -260.88)" style="fill:#58595b"/>
            </g>
        </g>
        <g data-name="Group 17415">
            <path data-name="Path 40450" d="M108.333 199.1H95.111a.734.734 0 1 1 0-1.467h13.222a.734.734 0 1 1 0 1.467z" transform="translate(-89.455 -183.129)" style="fill:#58595b"/>
            <g data-name="Group 17412">
                <path data-name="Path 40451" d="M108.333 246.53H95.111a.734.734 0 1 1 0-1.467h13.222a.734.734 0 0 1 0 1.467z" transform="translate(-89.455 -227.079)" style="fill:#58595b"/>
            </g>
            <g data-name="Group 17413">
                <path data-name="Path 40452" d="M108.333 293.961H95.111a.734.734 0 1 1 0-1.467h13.222a.734.734 0 0 1 0 1.467z" transform="translate(-89.455 -271.029)" style="fill:#58595b"/>
            </g>
            <g data-name="Group 17414">
                <path data-name="Path 40453" d="M108.333 341.391H95.111a.734.734 0 1 1 0-1.467h13.222a.734.734 0 1 1 0 1.467z" transform="translate(-89.455 -314.979)" style="fill:#58595b"/>
            </g>
        </g>
    </g>
</svg>
