<svg xmlns="http://www.w3.org/2000/svg" width="33.558" height="37.573" viewBox="0 0 33.558 37.573">
    <g data-name="Group 17416">
        <g data-name="Group 17408">
            <path data-name="Path 40447" d="M25.854 12.501a.734.734 0 0 1-.734-.734V6.75a.734.734 0 1 1 1.467 0v5.017a.734.734 0 0 1-.733.734z"/>
        </g>
        <g data-name="Group 17409" transform="translate(25.117 3.655)">
            <circle data-name="Ellipse 2314" cx=".734" cy=".734" r=".734"/>
        </g>
        <g data-name="Group 17411">
            <path data-name="Path 40448" d="M33.558 7.712a7.7 7.7 0 0 0-12.388-6.12H2.67A2.673 2.673 0 0 0 0 4.262v26.691a2.673 2.673 0 0 0 2.67 2.67h2.328v1.28a2.673 2.673 0 0 0 2.67 2.67h19.189a2.673 2.673 0 0 0 2.67-2.67v-10.18a.734.734 0 1 0-1.467 0v10.18a1.2 1.2 0 0 1-1.2 1.2H7.673a1.2 1.2 0 0 1-1.2-1.2v-1.279h15.386a2.673 2.673 0 0 0 2.67-2.67V15.303a7.735 7.735 0 0 0 3.531-.209v2.992a.734.734 0 0 0 1.467 0v-3.6a7.715 7.715 0 0 0 4.025-6.773zM23.062 30.953a1.2 1.2 0 0 1-1.2 1.2H2.674a1.2 1.2 0 0 1-1.2-1.2V4.262a1.2 1.2 0 0 1 1.2-1.2H19.71a7.668 7.668 0 0 0-1.558 4.324h-12.5a.734.734 0 0 0-.734.734v3.1a.734.734 0 0 0 .734.734h13.226a.731.731 0 0 0 .444-.149 7.752 7.752 0 0 0 3.74 3.098zm-4.918-22.1v1.631H6.389V8.853zm7.707 5.1a6.241 6.241 0 1 1 6.24-6.241 6.241 6.241 0 0 1-6.239 6.241z"/>
            <g data-name="Group 17410">
                <path data-name="Path 40449" d="M28.794 22.127a.734.734 0 1 1 .715-.567.734.734 0 0 1-.715.567z"/>
            </g>
        </g>
        <g data-name="Group 17415">
            <path data-name="Path 40450" d="M18.878 15.971H5.656a.734.734 0 1 1 0-1.467h13.222a.734.734 0 1 1 0 1.467z"/>
            <g data-name="Group 17412">
                <path data-name="Path 40451" d="M18.878 19.451H5.656a.734.734 0 1 1 0-1.467h13.222a.734.734 0 0 1 0 1.467z"/>
            </g>
            <g data-name="Group 17413">
                <path data-name="Path 40452" d="M18.878 22.932H5.656a.734.734 0 1 1 0-1.467h13.222a.734.734 0 0 1 0 1.467z"/>
            </g>
            <g data-name="Group 17414">
                <path data-name="Path 40453" d="M18.878 26.412H5.656a.734.734 0 1 1 0-1.467h13.222a.734.734 0 1 1 0 1.467z"/>
            </g>
        </g>
    </g>
</svg>
