<svg xmlns="http://www.w3.org/2000/svg" width="30.77" height="32.494" viewBox="0 0 30.77 32.494">
    <g data-name="Group 17417">
        <path data-name="Path 40457" d="M355.382 28.1A3.385 3.385 0 1 0 352 24.719a3.385 3.385 0 0 0 3.382 3.381zm0-5.415a2.031 2.031 0 1 1-2.031 2.031 2.031 2.031 0 0 1 2.031-2.031z" transform="translate(-330.52 -19.979)" style="fill:#58595b"/>
        <path data-name="Path 40458" d="m353.42 159.257-.868-6.937a3.388 3.388 0 0 0-3.358-2.965h-3.343a3.351 3.351 0 0 0-1.128.2.677.677 0 0 0 .452 1.275 2.028 2.028 0 0 1 .676-.121h3.343a2.034 2.034 0 0 1 2.015 1.779l.868 6.937a.676.676 0 0 1-.672.761h-.5a.676.676 0 0 0-.676.628l-.632 8.849h-4.155l-.487-6.819a.677.677 0 1 0-1.35.1l.532 7.448a.68.68 0 0 0 .676.628h5.415a.676.676 0 0 0 .674-.627l.632-8.853a2.031 2.031 0 0 0 1.882-2.279z" transform="translate(-322.662 -139.875)" style="fill:#58595b"/>
        <path data-name="Path 40459" d="M22.7 162.351a.669.669 0 0 0-.723.627l-.477 6.664h-4.153l-.631-8.849a.678.678 0 0 0-.677-.628h-.5a.676.676 0 0 1-.672-.761l.868-6.937a2.032 2.032 0 0 1 2.015-1.779h3.35a1.949 1.949 0 0 1 .51.076.678.678 0 1 0 .344-1.311 3.331 3.331 0 0 0-.856-.119h-3.345A3.389 3.389 0 0 0 14.4 152.3l-.868 6.937a2.031 2.031 0 0 0 1.882 2.279l.632 8.853a.678.678 0 0 0 .674.628h5.415a.678.678 0 0 0 .676-.628l.521-7.293a.677.677 0 0 0-.632-.725z" transform="translate(-13.516 -139.856)" style="fill:#58595b"/>
        <path data-name="Path 40460" d="M56.715 28.1a3.385 3.385 0 1 0-3.385-3.385 3.385 3.385 0 0 0 3.385 3.385zm0-5.415a2.031 2.031 0 1 1-2.031 2.031 2.031 2.031 0 0 1 2.031-2.031z" transform="translate(-50.807 -19.979)" style="fill:#58595b"/>
        <path data-name="Path 40461" d="m170.349 139.152-.9-7.863A3.582 3.582 0 0 0 166 128h-3.456a3.582 3.582 0 0 0-3.45 3.289l-.9 7.863a2.3 2.3 0 0 0 .556 1.791 2 2 0 0 0 1.39.684l.747 10.116a.677.677 0 0 0 .674.627h5.415a.675.675 0 0 0 .674-.627l.747-10.116a2 2 0 0 0 1.39-.684 2.293 2.293 0 0 0 .562-1.791zm-1.565.89a.675.675 0 0 1-.5.234h-.516a.677.677 0 0 0-.676.627l-.746 10.113h-4.158l-.745-10.113a.678.678 0 0 0-.676-.627h-.514a.677.677 0 0 1-.5-.234.946.946 0 0 1-.222-.736l.9-7.863a2.233 2.233 0 0 1 2.107-2.088H166a2.235 2.235 0 0 1 2.107 2.088l.9 7.863a.946.946 0 0 1-.223.735z" transform="translate(-149.003 -119.876)" style="fill:#58595b"/>
        <path data-name="Path 40462" d="M204.214 6.769a3.385 3.385 0 1 0-3.385-3.385 3.385 3.385 0 0 0 3.385 3.385zm0-5.416a2.031 2.031 0 1 1-2.031 2.031 2.031 2.031 0 0 1 2.031-2.031z" transform="translate(-188.945 .001)" style="fill:#58595b"/>
    </g>
</svg>
