<svg xmlns="http://www.w3.org/2000/svg" width="42.049" height="41.416" viewBox="0 0 42.049 41.416">
    <path data-name="Path 40454" d="M397.068 186.785a3.451 3.451 0 1 1 3.451-3.451 3.451 3.451 0 0 1-3.451 3.451zm0-5.522a2.071 2.071 0 1 0 2.071 2.071 2.071 2.071 0 0 0-2.071-2.071zm0 0" transform="translate(-366.38 -167.46)" style="fill:#58595b"/>
    <path data-name="Path 40455" d="M117.533 186.785a3.451 3.451 0 1 1 3.451-3.451 3.451 3.451 0 0 1-3.451 3.451zm0-5.522a2.071 2.071 0 1 0 2.071 2.071 2.071 2.071 0 0 0-2.071-2.071zm0 0" transform="translate(-106.171 -167.46)" style="fill:#58595b"/>
    <path data-name="Path 40456" d="m34.805 23.956 6.58-5.981a1.928 1.928 0 1 0-2.576-2.869l-4.956 4.4h-6.967l-5.195 6.35V8.466h6.9v2.761h11.375L38.31 7.086l1.656-4.141h-7.922V.184H20.311v25.675l-5.194-6.35H8.15L3.194 15.1a1.929 1.929 0 1 0-2.578 2.87L7.2 23.956v16.26H.295V41.6h41.412v-1.384h-6.9zM32.044 4.325h5.882l-1.1 2.761 1.1 2.761h-7.952V8.466h2.071zM21.691 1.564h8.973v5.522h-8.973zM14.1 40.216h-2.072v-9.663h-1.38v9.663H8.577v-16.87l-7.032-6.39a.553.553 0 0 1-.083-.71.546.546 0 0 1 .816-.106l5.347 4.75h6.837l5.132 6.273a.561.561 0 1 1-.86.721L14.1 22.477zm12.424 0H15.479V26.2l2.209 2.575a1.942 1.942 0 0 0 2.553.349c.026-.017.048-.039.073-.058v5.624h1.38v-5.618c.026.02.049.043.076.061a1.942 1.942 0 0 0 2.548-.351l2.2-2.577zm6.9 0h-2.07v-9.663h-1.38v9.663H27.9V22.477l-4.635 5.408a.561.561 0 0 1-.861-.719l5.136-6.276h6.837l5.346-4.753a.534.534 0 0 1 .433-.137.542.542 0 0 1 .387.243.548.548 0 0 1-.086.706l-7.032 6.393zm0 0" style="fill:#58595b" transform="translate(.024 -.184)"/>
</svg>
