<svg xmlns="http://www.w3.org/2000/svg" width="42.049" height="41.416" viewBox="0 0 42.049 41.416">
    <path data-name="Path 40454" d="M30.688 19.325a3.451 3.451 0 1 1 3.451-3.451 3.451 3.451 0 0 1-3.451 3.451zm0-5.522a2.071 2.071 0 1 0 2.071 2.071 2.071 2.071 0 0 0-2.071-2.071zm0 0"/>
    <path data-name="Path 40455" d="M11.362 19.325a3.451 3.451 0 1 1 3.451-3.451 3.451 3.451 0 0 1-3.451 3.451zm0-5.522a2.071 2.071 0 1 0 2.071 2.071 2.071 2.071 0 0 0-2.071-2.071zm0 0"/>
    <path data-name="Path 40456" d="m34.829 23.772 6.58-5.981a1.928 1.928 0 1 0-2.576-2.869l-4.956 4.4H26.91l-5.195 6.35V8.282h6.9v2.761H39.99l-1.656-4.141 1.656-4.141h-7.922V0H20.335v25.675l-5.194-6.35H8.174l-4.956-4.409a1.929 1.929 0 1 0-2.578 2.87l6.584 5.986v16.26H.319v1.384h41.412v-1.384h-6.9zM32.068 4.141h5.882l-1.1 2.761 1.1 2.761h-7.952V8.282h2.071zM21.715 1.38h8.973v5.522h-8.973zm-7.591 38.652h-2.072v-9.663h-1.38v9.663H8.601v-16.87l-7.032-6.39a.553.553 0 0 1-.083-.71.546.546 0 0 1 .816-.106l5.347 4.75h6.837l5.132 6.273a.561.561 0 1 1-.86.721l-4.634-5.407zm12.424 0H15.503V26.016l2.209 2.575a1.942 1.942 0 0 0 2.553.349c.026-.017.048-.039.073-.058v5.624h1.38v-5.618c.026.02.049.043.076.061a1.942 1.942 0 0 0 2.548-.351l2.2-2.577zm6.9 0h-2.07v-9.663h-1.38v9.663h-2.074V22.293l-4.635 5.408a.561.561 0 0 1-.861-.719l5.136-6.276h6.837l5.346-4.753a.534.534 0 0 1 .433-.137.542.542 0 0 1 .387.243.548.548 0 0 1-.086.706l-7.032 6.393zm0 0"/>
</svg>
