<svg xmlns="http://www.w3.org/2000/svg" width="43.886" height="41.334" viewBox="0 0 43.886 41.334">
  <g id="documents-svgrepo-com_1_" data-name="documents-svgrepo-com (1)" transform="translate(0.25 0.25)">
    <path id="Path_20600" data-name="Path 20600" d="M1.929,35.73H24.883A1.916,1.916,0,0,0,26.8,33.816V9.57a.6.6,0,0,0-.017-.083.544.544,0,0,0-.017-.079.623.623,0,0,0-.156-.29L17.677.188a.646.646,0,0,0-.29-.156.544.544,0,0,0-.079-.017A.773.773,0,0,0,17.227,0H1.922A1.921,1.921,0,0,0,0,1.914v31.9A1.924,1.924,0,0,0,1.929,35.73ZM17.865,2.178l6.754,6.754H18.5a.639.639,0,0,1-.638-.638ZM1.276,1.914a.642.642,0,0,1,.646-.638H16.589V8.294A1.916,1.916,0,0,0,18.5,10.208h7.018V33.816a.639.639,0,0,1-.638.638H1.929a.646.646,0,0,1-.653-.638Z" fill="#58595b" stroke="#58595b" stroke-width="0.5"/>
    <path id="Path_20601" data-name="Path 20601" d="M4.638,12.276H19.951a.638.638,0,0,0,0-1.276H4.638a.638.638,0,0,0,0,1.276Z" transform="translate(1.104 3.037)" fill="#58595b" stroke="#58595b" stroke-width="0.5"/>
    <path id="Path_20602" data-name="Path 20602" d="M4.638,16.276H19.951a.638.638,0,0,0,0-1.276H4.638a.638.638,0,0,0,0,1.276Z" transform="translate(1.104 4.141)" fill="#58595b" stroke="#58595b" stroke-width="0.5"/>
    <path id="Path_20603" data-name="Path 20603" d="M4.638,8.276h6.38a.638.638,0,1,0,0-1.276H4.638a.638.638,0,0,0,0,1.276Z" transform="translate(1.104 1.932)" fill="#58595b" stroke="#58595b" stroke-width="0.5"/>
    <path id="Path_20604" data-name="Path 20604" d="M4.638,20.276H19.951a.638.638,0,1,0,0-1.276H4.638a.638.638,0,0,0,0,1.276Z" transform="translate(1.104 5.245)" fill="#58595b" stroke="#58595b" stroke-width="0.5"/>
    <path id="Path_20605" data-name="Path 20605" d="M4.638,24.276H19.951a.638.638,0,1,0,0-1.276H4.638a.638.638,0,0,0,0,1.276Z" transform="translate(1.104 6.349)" fill="#58595b" stroke="#58595b" stroke-width="0.5"/>
    <path id="Path_20606" data-name="Path 20606" d="M23.847,5.276h5.742v7.018A1.916,1.916,0,0,0,31.5,14.208h7.018V37.816a.639.639,0,0,1-.638.638H14.929a.646.646,0,0,1-.653-.638V36.54a.638.638,0,0,0-1.276,0v1.276a1.924,1.924,0,0,0,1.929,1.914H37.883A1.916,1.916,0,0,0,39.8,37.816V13.57a.6.6,0,0,0-.017-.083.543.543,0,0,0-.017-.079.623.623,0,0,0-.156-.29L30.677,4.188a.627.627,0,0,0-.291-.156.525.525,0,0,0-.078-.015A.544.544,0,0,0,30.227,4h-6.38a.638.638,0,1,0,0,1.276ZM31.5,12.932a.639.639,0,0,1-.638-.638V6.178l6.754,6.754Z" transform="translate(3.589 1.104)" fill="#58595b" stroke="#58595b" stroke-width="0.5"/>
    <path id="Path_20607" data-name="Path 20607" d="M23.638,16.276h7.656a.638.638,0,0,0,0-1.276H23.638a.638.638,0,1,0,0,1.276Z" transform="translate(6.349 4.141)" fill="#58595b" stroke="#58595b" stroke-width="0.5"/>
    <path id="Path_20608" data-name="Path 20608" d="M23.638,20.276h7.656a.638.638,0,1,0,0-1.276H23.638a.638.638,0,1,0,0,1.276Z" transform="translate(6.349 5.245)" fill="#58595b" stroke="#58595b" stroke-width="0.5"/>
    <path id="Path_20609" data-name="Path 20609" d="M23.638,24.276h7.656a.638.638,0,1,0,0-1.276H23.638a.638.638,0,1,0,0,1.276Z" transform="translate(6.349 6.349)" fill="#58595b" stroke="#58595b" stroke-width="0.5"/>
    <path id="Path_20610" data-name="Path 20610" d="M23.638,28.276h7.656a.638.638,0,1,0,0-1.276H23.638a.638.638,0,1,0,0,1.276Z" transform="translate(6.349 7.454)" fill="#58595b" stroke="#58595b" stroke-width="0.5"/>
  </g>
</svg>
