<?xml version="1.0" encoding="utf-8"?>
<!-- Generator: Adobe Illustrator 22.1.0, SVG Export Plug-In . SVG Version: 6.00 Build 0)  -->
<svg version="1.1" id="Layer_1" xmlns="http://www.w3.org/2000/svg" xmlns:xlink="http://www.w3.org/1999/xlink" x="0px" y="0px"
	 viewBox="0 0 24 24" style="enable-background:new 0 0 24 24;" xml:space="preserve">
<g>
	<circle style="fill:#0486B9;stroke:#074063;stroke-width:0.1;stroke-miterlimit:10;" cx="15.2" cy="17.8" r="3.5"/>
	<path style="fill:#0886B8;stroke:#074063;stroke-width:0.1;stroke-miterlimit:10;" d="M10.8,8.8c1.7,0,3-1.4,3-3s-1.4-3-3-3
		c-1.7,0-3,1.4-3,3S9.1,8.8,10.8,8.8z"/>
	<path style="fill:#0886B8;stroke:#074063;stroke-width:0.1;stroke-miterlimit:10;" d="M15.1,13.7c0.4,0,0.7,0.1,1.1,0.2v-2.5
		c0-0.6-0.3-1.1-0.7-1.4c-0.4-0.3-1.9-0.5-2.8-0.5l-1.4,3.3l-0.2-1.9l0.5-0.8c0.1-0.2,0.1-0.4-0.1-0.5c-0.1-0.1-0.2-0.1-0.3-0.1
		h-0.9c-0.1,0-0.2,0-0.3,0.1C9.8,9.8,9.8,10,9.9,10.2l0.5,0.8l-0.2,1.9L8.8,9.6c-0.8,0-2.3,0.2-2.6,0.4c-0.6,0.3-0.9,0.9-0.9,1.5v7
		h5.9c0-0.2-0.1-0.5-0.1-0.7C11.1,15.5,12.9,13.7,15.1,13.7z"/>
	<g>
		<path style="fill:#FFFFFF;" d="M16.4,16.9h-2.1c0,0-0.1,0-0.1,0.1s0,0.1,0.1,0.1h2.1C16.4,17.1,16.5,17,16.4,16.9
			C16.5,16.9,16.4,16.9,16.4,16.9z"/>
		<path style="fill:#FFFFFF;" d="M14.3,16.4h0.8c0,0,0.1,0,0.1-0.1s0-0.1-0.1-0.1h-0.8C14.3,16.2,14.2,16.3,14.3,16.4
			C14.2,16.4,14.3,16.4,14.3,16.4z"/>
		<path style="fill:#FFFFFF;" d="M16.4,17.6h-2.1c0,0-0.1,0-0.1,0.1s0,0.1,0.1,0.1h2.1C16.4,17.7,16.5,17.7,16.4,17.6
			C16.5,17.6,16.4,17.6,16.4,17.6z"/>
		<path style="fill:#FFFFFF;" d="M16.4,18.2h-2.1c0,0-0.1,0-0.1,0.1c0,0,0,0.1,0.1,0.1h2.1C16.4,18.4,16.5,18.4,16.4,18.2
			C16.5,18.3,16.4,18.2,16.4,18.2z"/>
		<path style="fill:#FFFFFF;" d="M16.4,18.9h-2.1c0,0-0.1,0-0.1,0.1s0,0.1,0.1,0.1h2.1C16.4,19.1,16.5,19,16.4,18.9
			C16.5,18.9,16.4,18.9,16.4,18.9z"/>
		<path style="fill:#FFFFFF;" d="M16.1,15.1h-2.7v5h3.9v-3.8L16.1,15.1z M16.1,15.4l0.9,0.9h-0.9V15.4z M13.6,19.9v-4.6H16v1.2h1.2
			v3.5H13.6z"/>
	</g>
</g>
</svg>
