<svg xmlns="http://www.w3.org/2000/svg" width="8.2" height="8.2" viewBox="0 0 8.2 8.2">
  <path id="calender-svgrepo-com" d="M8.8,2.8H8V2.4a.4.4,0,0,0-.8,0v.4H4.8V2.4a.4.4,0,0,0-.8,0v.4H3.2A1.2,1.2,0,0,0,2,4V8.8A1.2,1.2,0,0,0,3.2,10H8.8A1.2,1.2,0,0,0,10,8.8V4A1.2,1.2,0,0,0,8.8,2.8Zm.4,6a.4.4,0,0,1-.4.4H3.2a.4.4,0,0,1-.4-.4V6H9.2Zm0-3.6H2.8V4a.4.4,0,0,1,.4-.4H4V4a.4.4,0,0,0,.8,0V3.6H7.2V4A.4.4,0,0,0,8,4V3.6h.8a.4.4,0,0,1,.4.4Z" transform="translate(-1.9 -1.9)" stroke="#f2faf5" stroke-width="0.2"/>
</svg>
