<svg xmlns="http://www.w3.org/2000/svg" width="15.6" height="14.1" viewBox="0 0 15.6 14.1">
  <g id="group-svgrepo-com_1_" data-name="group-svgrepo-com (1)" transform="translate(0.05 -38.43)">
    <g id="Group_13986" data-name="Group 13986" transform="translate(0 38.48)">
      <g id="Group_13985" data-name="Group 13985" transform="translate(0 0)">
        <path id="Path_40692" data-name="Path 40692" d="M151.549,61.962a4.668,4.668,0,0,0,.867,2.558,2.447,2.447,0,0,0,4.386,0,4.668,4.668,0,0,0,.866-2.558,3.06,3.06,0,0,0-6.119,0Zm3.06-2.528a2.531,2.531,0,0,1,2.528,2.528,4.179,4.179,0,0,1-.77,2.253,1.929,1.929,0,0,1-3.516,0,4.179,4.179,0,0,1-.77-2.253A2.531,2.531,0,0,1,154.609,59.433Z" transform="translate(-146.859 -58.179)" stroke="#000" stroke-width="0.1"/>
        <path id="Path_40693" data-name="Path 40693" d="M94.453,238.463a.219.219,0,0,0-.263.049,2.175,2.175,0,0,1-3.457,0,.219.219,0,0,0-.263-.049,4.786,4.786,0,0,0-1.91,1.818A5.3,5.3,0,0,0,87.822,243v0a.261.261,0,0,0,.076.186,6.419,6.419,0,0,0,9.125,0A.26.26,0,0,0,97.1,243v0a5.3,5.3,0,0,0-.737-2.715A4.784,4.784,0,0,0,94.453,238.463Zm-1.992,6.125a6.047,6.047,0,0,1-4.174-1.7,4.763,4.763,0,0,1,.662-2.336,4.328,4.328,0,0,1,1.578-1.561,2.747,2.747,0,0,0,1.934.876l1.158-.3.776-.58a4.328,4.328,0,0,1,1.578,1.561,4.764,4.764,0,0,1,.662,2.336A6.047,6.047,0,0,1,92.461,244.588Z" transform="translate(-84.711 -231.09)" stroke="#000" stroke-width="0.1"/>
        <path id="Path_40694" data-name="Path 40694" d="M312.543,197.467a4.642,4.642,0,0,0-1.908-1.679.266.266,0,0,0-.3.052,2.4,2.4,0,0,1-1.688.773,2.114,2.114,0,0,1-.952-.232.266.266,0,1,0-.238.475,2.64,2.64,0,0,0,1.19.288,2.857,2.857,0,0,0,1.923-.795,4.1,4.1,0,0,1,2.178,3.51,6.271,6.271,0,0,1-2.264,1.262.266.266,0,1,0,.156.508,6.805,6.805,0,0,0,2.553-1.455.266.266,0,0,0,.087-.2v0A4.618,4.618,0,0,0,312.543,197.467Z" transform="translate(-297.779 -189.887)" stroke="#000" stroke-width="0.1"/>
        <path id="Path_40695" data-name="Path 40695" d="M57.642,44.573a1.862,1.862,0,0,0,.833-.2.266.266,0,1,0-.236-.476,1.336,1.336,0,0,1-.6.148,1.951,1.951,0,0,1-1.486-.964,3.567,3.567,0,0,1-.658-1.922,2.144,2.144,0,0,1,3.632-1.543.266.266,0,0,0,.369-.382,2.675,2.675,0,0,0-4.532,1.926,4.065,4.065,0,0,0,.754,2.227A2.43,2.43,0,0,0,57.642,44.573Z" transform="translate(-53.02 -38.48)" stroke="#000" stroke-width="0.1"/>
        <path id="Path_40696" data-name="Path 40696" d="M2.162,200.876a6.21,6.21,0,0,1-1.629-1.027,4.091,4.091,0,0,1,2.171-3.5,2.849,2.849,0,0,0,1.918.793,2.636,2.636,0,0,0,1.2-.293.266.266,0,0,0-.24-.474,2.11,2.11,0,0,1-.959.236,2.39,2.39,0,0,1-1.683-.771.266.266,0,0,0-.3-.052A4.622,4.622,0,0,0,0,199.963v0a.266.266,0,0,0,.087.2,6.744,6.744,0,0,0,1.864,1.2.266.266,0,1,0,.21-.488Z" transform="translate(0 -189.883)" stroke="#000" stroke-width="0.1"/>
        <path id="Path_40697" data-name="Path 40697" d="M69.3,346.629a.265.265,0,1,0,.49,0A.267.267,0,0,0,69.3,346.629Z" transform="translate(-66.827 -335.662)" stroke="#000" stroke-width="0.1"/>
        <path id="Path_40698" data-name="Path 40698" d="M83.649,350.876c.007.016-.006-.016,0,0Z" transform="translate(-80.684 -339.907)" stroke="#000" stroke-width="0.1"/>
        <path id="Path_40699" data-name="Path 40699" d="M291.088,39.613a2.144,2.144,0,0,1,3.632,1.543,3.566,3.566,0,0,1-.658,1.922,1.951,1.951,0,0,1-1.486.964,1.336,1.336,0,0,1-.6-.148.266.266,0,1,0-.236.476,1.862,1.862,0,0,0,.833.2,2.43,2.43,0,0,0,1.921-1.19,4.065,4.065,0,0,0,.754-2.227,2.675,2.675,0,0,0-4.532-1.926.266.266,0,0,0,.369.382Z" transform="translate(-281.698 -38.481)" stroke="#000" stroke-width="0.1"/>
      </g>
    </g>
  </g>
</svg>
