<svg xmlns="http://www.w3.org/2000/svg" width="12" height="14" viewBox="0 0 12 14">
  <g id="_-Product-Icons" data-name="ðŸ”-Product-Icons" transform="translate(-4.25 -2.25)">
    <g id="ic_fluent_location_28_regular" transform="translate(4.25 2.25)">
      <path id="_-Color" data-name="ðŸŽ¨-Color" d="M10.25,2.25a5.885,5.885,0,0,1,6,5.762c0,2.435-1.781,5.088-5.3,7.989a1.111,1.111,0,0,1-1.4,0l-.232-.194C5.953,12.981,4.25,10.392,4.25,8.012A5.885,5.885,0,0,1,10.25,2.25Zm0,.886A4.979,4.979,0,0,0,5.173,8.012c0,2.07,1.568,4.454,4.747,7.125l.229.191a.159.159,0,0,0,.2,0c3.333-2.749,4.977-5.2,4.977-7.316A4.979,4.979,0,0,0,10.25,3.136Zm0,2.659a2.263,2.263,0,0,1,2.308,2.216,2.31,2.31,0,0,1-4.615,0A2.263,2.263,0,0,1,10.25,5.8Zm0,.886a1.331,1.331,0,1,0,1.385,1.33A1.358,1.358,0,0,0,10.25,6.682Z" transform="translate(-4.25 -2.25)"/>
    </g>
  </g>
</svg>
