<svg xmlns="http://www.w3.org/2000/svg" width="8" height="8" viewBox="0 0 8 8">
  <g id="laptop-svgrepo-com" transform="translate(333 361.55)">
    <g id="Group_13996" data-name="Group 13996" transform="translate(-333 -361.55)">
      <path id="Path_40707" data-name="Path 40707" d="M7.662.45H.34A.341.341,0,0,0,0,.788V6.768a.341.341,0,0,0,.34.338h7.3A.365.365,0,0,0,8,6.785v-6A.338.338,0,0,0,7.662.45Zm-.34,6H.663V1.109H7.322Z" transform="translate(0 -0.45)"/>
      <path id="Path_40708" data-name="Path 40708" d="M7.662,447.85H.34a.354.354,0,0,0,0,.707h7.3A.363.363,0,0,0,8,448.2.345.345,0,0,0,7.662,447.85Z" transform="translate(0 -440.557)"/>
    </g>
  </g>
</svg>
