<svg xmlns="http://www.w3.org/2000/svg" width="8.192" height="8.2" viewBox="0 0 8.192 8.2">
  <g id="Group_17530" data-name="Group 17530" transform="translate(-2.871 -0.215)">
    <path id="Path_40692" data-name="Path 40692" d="M151.549,60.853a2.469,2.469,0,0,0,.776,1.631,2.655,2.655,0,0,0,3.927,0,2.469,2.469,0,0,0,.776-1.631c0-1.076-1.229-1.951-2.739-1.951S151.549,59.777,151.549,60.853Zm2.739-1.612c1.248,0,2.264.723,2.264,1.612a2.214,2.214,0,0,1-.689,1.437,2.074,2.074,0,0,1-3.148,0,2.214,2.214,0,0,1-.689-1.437C152.025,59.964,153.04,59.241,154.288,59.241Z" transform="translate(-147.269 -58.587)" stroke="#000" stroke-width="0.2"/>
    <path id="Path_40693" data-name="Path 40693" d="M93.459,238.455a.217.217,0,0,0-.224.034,2.123,2.123,0,0,1-2.939,0,.217.217,0,0,0-.224-.034,3.84,3.84,0,0,0-1.624,1.256,3.159,3.159,0,0,0-.626,1.876v0a.165.165,0,0,0,.065.128,6.376,6.376,0,0,0,7.758,0,.165.165,0,0,0,.065-.128v0a3.16,3.16,0,0,0-.626-1.876A3.838,3.838,0,0,0,93.459,238.455Zm-1.693,4.232a5.815,5.815,0,0,1-3.549-1.174,2.849,2.849,0,0,1,.563-1.614,3.434,3.434,0,0,1,1.342-1.078,2.607,2.607,0,0,0,1.644.605l.985-.2.66-.4a3.433,3.433,0,0,1,1.341,1.078,2.849,2.849,0,0,1,.562,1.614A5.815,5.815,0,0,1,91.766,242.688Z" transform="translate(-84.746 -234.72)" stroke="#000" stroke-width="0.2"/>
    <path id="Path_40698" data-name="Path 40698" d="M83.648,350.875Z" transform="translate(-80.684 -343.218)" stroke="#000" stroke-width="0.2"/>
  </g>
</svg>
