<svg xmlns="http://www.w3.org/2000/svg" width="9.2" height="7.2" viewBox="0 0 9.2 7.2">
  <g id="Group_17546" data-name="Group 17546" transform="translate(-560.078 -891.491)">
    <g id="circular-arrow-with-dots-svgrepo-com" transform="translate(560.178 891.591)">
      <g id="Group_17545" data-name="Group 17545" transform="translate(0 0)">
        <path id="Path_40755" data-name="Path 40755" d="M.017,79.808a.125.125,0,0,0,.129.116.127.127,0,0,0,.105-.141c-.011-.123-.017-.249-.017-.374a3.594,3.594,0,0,1,3.412-3.744,3.59,3.59,0,0,1,3.41,3.713l-.685-.752a.11.11,0,0,0-.166,0,.138.138,0,0,0,0,.182l.922,1.013.922-1.013a.138.138,0,0,0,0-.182.111.111,0,0,0-.166,0l-.6.654a3.826,3.826,0,0,0-3.641-3.873,3.842,3.842,0,0,0-3.647,4C0,79.542,0,79.677.017,79.808Z" transform="translate(0.001 -75.406)" fill="#010002" stroke="#000" stroke-width="0.2"/>
      </g>
    </g>
    <g id="circular-arrow-with-dots-svgrepo-com-2" data-name="circular-arrow-with-dots-svgrepo-com" transform="translate(561.093 894.072)">
      <g id="Group_17545-2" data-name="Group 17545" transform="translate(0)">
        <path id="Path_40755-2" data-name="Path 40755" d="M8.067,75.522a.125.125,0,0,0-.129-.116.127.127,0,0,0-.105.141c.011.123.017.249.017.374a3.594,3.594,0,0,1-3.412,3.744,3.59,3.59,0,0,1-3.41-3.713l.685.752a.11.11,0,0,0,.166,0,.138.138,0,0,0,0-.182L.956,75.51.034,76.522a.138.138,0,0,0,0,.182.111.111,0,0,0,.166,0l.6-.654a3.826,3.826,0,0,0,3.641,3.873,3.842,3.842,0,0,0,3.647-4C8.085,75.788,8.079,75.654,8.067,75.522Z" transform="translate(0.001 -75.406)" fill="#010002" stroke="#000" stroke-width="0.2"/>
      </g>
    </g>
  </g>
</svg>
